<svg xmlns="http://www.w3.org/2000/svg" viewBox="0 0 800 800" width="800" height="800">
  <defs>
    <linearGradient id="g-2413489396" gradientTransform="rotate(58)">
      <stop offset="0%" stop-color="#4b41e1" />
      <stop offset="100%" stop-color="#151c27" />
    </linearGradient>
    <filter id="blur" x="-50%" y="-50%" width="200%" height="200%">
      <feGaussianBlur stdDeviation="48" />
    </filter>
    
  <pattern id="d-2413489396" width="28" height="28" patternUnits="userSpaceOnUse">
    <circle cx="2" cy="2" r="1.4" fill="#ffffff" opacity="0.16" />
  </pattern>
  </defs>
  <rect width="800" height="800" fill="url(#g-2413489396)" />
  <circle cx="699" cy="398" r="290" fill="#ffffff" opacity="0.10" filter="url(#blur)" /><circle cx="619" cy="294" r="192" fill="#ffffff" opacity="0.17" filter="url(#blur)" /><circle cx="286" cy="416" r="176" fill="#ffffff" opacity="0.21" filter="url(#blur)" />
  <rect width="800" height="800" fill="url(#d-2413489396)" />
  <path d="M447,107 L552,107 L552,203 L552,310 L641,310" stroke="#ffffff" stroke-width="1.5" fill="none" opacity="0.25" stroke-linecap="round" stroke-linejoin="round" /><circle cx="447" cy="107" r="3.5" fill="#ffffff" opacity="0.35" /><circle cx="552" cy="107" r="3.5" fill="#ffffff" opacity="0.35" /><circle cx="552" cy="203" r="3.5" fill="#ffffff" opacity="0.35" /><circle cx="552" cy="310" r="3.5" fill="#ffffff" opacity="0.35" /><circle cx="641" cy="310" r="3.5" fill="#ffffff" opacity="0.35" />
  
  
  <g>
    <circle cx="400" cy="400" r="190" fill="#ffffff" opacity="0.14" />
    <circle cx="400" cy="400" r="180" fill="#ffffff" opacity="0.1" />
    <g transform="translate(400,400) scale(2.280) translate(-50,-50)" stroke="#ffffff" stroke-width="4.39" fill="none" stroke-linecap="round" stroke-linejoin="round" opacity="0.95">
      
    <rect x="42" y="6" width="16" height="12" rx="2" />
    <path d="M40,18 L60,18 L64,32 L64,88 Q64,96 56,96 L44,96 Q36,96 36,88 L36,32 Z" />
    <path d="M36,50 L64,50" />
  
    </g>
  </g>
</svg>